<svg width="138" height="91" viewBox="0 0 138 91" fill="none" xmlns="http://www.w3.org/2000/svg">
<g id="motarboard">
<path id="Vector" d="M69.6142 90.0827C55.0048 89.9868 40.5781 86.8271 27.266 80.8078C26.4736 80.4547 25.801 79.8786 25.3301 79.15C24.8593 78.4213 24.6105 77.5714 24.6142 76.7038V40.2859C24.6155 39.0928 25.09 37.949 25.9337 37.1054C26.7773 36.2617 27.9211 35.7872 29.1142 35.7859H110.114C111.307 35.7872 112.451 36.2618 113.295 37.1054C114.138 37.949 114.613 39.0928 114.614 40.2859V76.7039C114.618 77.5714 114.369 78.4213 113.898 79.15C113.427 79.8787 112.755 80.4547 111.962 80.8079C98.6503 86.8272 84.2235 89.9868 69.6142 90.0827V90.0827Z" fill="#689ED0"/>
<path id="Vector_2" d="M69.6031 60.5799C69.0026 60.5804 68.408 60.4609 67.8544 60.2283L3.62246 33.1287C2.79414 32.7793 2.08947 32.1897 1.59933 31.4361C1.10918 30.6824 0.856018 29.7993 0.87249 28.9004C0.888963 28.0016 1.17433 27.1282 1.69177 26.3931C2.2092 25.6579 2.93497 25.0945 3.77554 24.7757L68.0083 0.407969C69.0429 0.0136867 70.1868 0.016119 71.2196 0.414805L134.592 24.7825C135.427 25.1039 136.148 25.6674 136.662 26.4008C137.176 27.1342 137.459 28.0042 137.476 28.8996C137.492 29.7949 137.241 30.6748 136.755 31.4267C136.269 32.1786 135.569 32.7683 134.746 33.1204L71.373 60.2195C70.8134 60.4578 70.2113 60.5804 69.6031 60.5799V60.5799Z" fill="#689ED0"/>
<path id="Vector_3" d="M32.1142 86.2859C35.4279 86.2859 38.1142 83.5996 38.1142 80.2859C38.1142 76.9722 35.4279 74.2859 32.1142 74.2859C28.8005 74.2859 26.1142 76.9722 26.1142 80.2859C26.1142 83.5996 28.8005 86.2859 32.1142 86.2859Z" fill="#65617D"/>
<path id="Vector_4" opacity="0.2" d="M134.965 32.2738L71.5917 59.373C71.0976 59.5842 70.5661 59.6938 70.0287 59.6951C69.4914 59.6964 68.9593 59.5894 68.4643 59.3806L4.23232 32.2817C3.42566 31.9495 2.75269 31.358 2.31972 30.6006C2.03649 31.0918 1.861 31.6375 1.80486 32.2017C1.74872 32.7658 1.81324 33.3355 1.99413 33.8728C2.17502 34.4101 2.46813 34.9027 2.85403 35.3181C3.23992 35.7334 3.70974 36.0619 4.23232 36.2817L68.4643 63.3806C68.9593 63.5894 69.4914 63.6964 70.0287 63.6951C70.5661 63.6938 71.0976 63.5842 71.5917 63.373L134.965 36.2738C135.485 36.052 135.952 35.7225 136.335 35.307C136.718 34.8915 137.009 34.3994 137.188 33.8633C137.367 33.3271 137.43 32.7591 137.374 32.1967C137.317 31.6343 137.142 31.0903 136.859 30.6006C136.429 31.3519 135.763 31.9401 134.965 32.2738V32.2738Z" fill="black"/>
<path id="Vector_5" d="M32.6183 77.2624C32.8835 77.2624 33.1379 77.1571 33.3254 76.9696C33.513 76.782 33.6183 76.5277 33.6183 76.2624V42.801L66.5995 30.7859C66.8647 30.7898 67.1207 30.6883 67.311 30.5035C67.5013 30.3188 67.6105 30.066 67.6144 29.8008C67.6184 29.5356 67.5168 29.2796 67.3321 29.0893C67.1473 28.899 66.8945 28.7898 66.6293 28.7859L33.6481 40.801C33.3827 40.7949 33.1188 40.8428 32.8724 40.9416C32.6261 41.0405 32.4023 41.1883 32.2148 41.3762C32.0252 41.5618 31.8748 41.7835 31.7723 42.0283C31.6699 42.273 31.6175 42.5357 31.6183 42.801V76.2624C31.6183 76.5276 31.7237 76.782 31.9112 76.9695C32.0988 77.1571 32.3531 77.2624 32.6183 77.2624V77.2624Z" fill="#65617D"/>
</g>
</svg>
