<svg width="800" height="648" viewBox="0 0 800 648" fill="none" xmlns="http://www.w3.org/2000/svg">
<g clip-path="url(#clip0)">
<path d="M20.907 161.727L758.258 2.66672L767.84 0.604424C772.72 -0.455448 777.8 -0.116493 782.496 1.58232C787.192 3.28114 791.313 6.27073 794.385 10.2075C797.457 14.1442 799.356 18.8682 799.863 23.836C800.37 28.8039 799.464 33.8141 797.251 38.2902L504.492 632.821C502.598 636.64 499.813 639.949 496.373 642.468C492.932 644.987 488.937 646.642 484.724 647.295C480.497 647.953 476.174 647.571 472.128 646.184C468.081 644.796 464.433 642.445 461.499 639.332L258.156 424.921C256.71 423.357 254.956 422.11 253.003 421.257C251.051 420.405 248.944 419.966 246.814 419.967C243.918 419.926 241.066 420.674 238.563 422.129C236.06 423.585 233.999 425.694 232.602 428.23L190.952 505.27C188.293 510.407 183.992 514.506 178.734 516.916C173.476 519.326 167.563 519.907 161.936 518.567L161.729 518.521C156.033 517.315 150.909 514.229 147.18 509.758C143.451 505.288 141.333 499.694 141.167 493.874L132.823 316.039C132.724 313.82 132.17 311.645 131.195 309.649C130.149 307.674 128.729 305.921 127.014 304.487L9.70408 208.189C5.84814 205.024 2.96202 200.836 1.37652 196.106C-0.208984 191.376 -0.429731 186.295 0.739646 181.446C1.90902 176.596 4.42105 172.174 7.988 168.686C11.555 165.199 16.0325 162.787 20.9072 161.727H20.907ZM16.4033 200.002L133.713 296.301C135.242 297.533 136.627 298.932 137.843 300.473L759.59 18.4956C760.139 18.2405 760.711 18.0399 761.298 17.8965C763.697 17.2784 766.235 17.5178 768.476 18.5733C770.716 19.6289 772.517 21.4342 773.567 23.6771C774.618 25.92 774.851 28.4593 774.227 30.856C773.603 33.2527 772.161 35.3561 770.151 36.8023L258.935 412.329C261.529 413.678 263.871 415.464 265.859 417.609L469.199 632.018C470.964 633.875 473.15 635.278 475.573 636.109C477.996 636.94 480.584 637.173 483.116 636.79C485.649 636.406 488.051 635.417 490.12 633.907C492.188 632.396 493.861 630.408 494.997 628.112L787.755 33.5822C789.064 30.8959 789.592 27.896 789.279 24.9243C788.966 21.9526 787.825 19.1285 785.985 16.7739C784.145 14.4193 781.681 12.6288 778.873 11.6063C776.065 10.5839 773.027 10.3706 770.104 10.9908L760.294 13.1107L23.1732 172.114C20.2464 172.748 17.5573 174.193 15.4136 176.284C13.2698 178.375 11.7582 181.027 11.0518 183.937C10.3453 186.848 10.4726 189.898 11.419 192.739C12.3655 195.58 14.0928 198.097 16.4033 200.002V200.002Z" fill="#689ED0"/>
<path d="M20.907 161.727L758.258 2.66672L767.84 0.604424C772.72 -0.455448 777.8 -0.116493 782.496 1.58232C787.192 3.28114 791.313 6.27073 794.385 10.2075C797.457 14.1442 799.356 18.8682 799.863 23.836C800.37 28.8039 799.464 33.8141 797.251 38.2902L504.492 632.821C502.598 636.64 499.813 639.949 496.373 642.468C492.932 644.987 488.937 646.642 484.724 647.295C480.497 647.953 476.174 647.571 472.128 646.184C468.081 644.796 464.433 642.445 461.499 639.332L258.156 424.921C256.71 423.357 254.956 422.11 253.003 421.257C251.051 420.405 248.944 419.966 246.814 419.967C243.918 419.926 241.066 420.674 238.563 422.129C236.06 423.585 233.999 425.694 232.602 428.23L190.952 505.27C188.293 510.407 183.992 514.506 178.734 516.916C173.476 519.326 167.563 519.907 161.936 518.567L161.729 518.521C156.033 517.315 150.909 514.229 147.18 509.758C143.451 505.288 141.333 499.694 141.167 493.874L132.823 316.039C132.724 313.82 132.17 311.645 131.195 309.649C130.149 307.674 128.729 305.921 127.014 304.487L9.70408 208.189C5.84814 205.024 2.96202 200.836 1.37652 196.106C-0.208984 191.376 -0.429731 186.295 0.739646 181.446C1.90902 176.596 4.42105 172.174 7.988 168.686C11.555 165.199 16.0325 162.787 20.9072 161.727H20.907ZM16.4033 200.002L133.713 296.301C135.242 297.533 136.627 298.932 137.843 300.473C138.939 301.844 139.885 303.328 140.666 304.901C141.484 306.508 142.129 308.199 142.59 309.943L142.578 309.995C143.065 311.812 143.345 313.678 143.414 315.557L151.755 493.392C151.825 496.889 153.083 500.258 155.321 502.945C157.56 505.631 160.647 507.477 164.073 508.176L164.177 508.199C167.553 509.038 171.114 508.712 174.282 507.273C177.45 505.834 180.039 503.368 181.629 500.274L223.291 423.182C225.437 419.217 228.561 415.866 232.367 413.447C236.172 411.028 240.532 409.622 245.034 409.362L245.084 409.373C245.69 409.344 246.293 409.315 246.885 409.337C251.085 409.339 255.222 410.366 258.935 412.329C261.529 413.678 263.871 415.464 265.859 417.609L469.199 632.018C470.964 633.875 473.15 635.278 475.573 636.109C477.996 636.94 480.584 637.173 483.116 636.79C485.649 636.406 488.051 635.417 490.12 633.907C492.188 632.396 493.861 630.408 494.997 628.112L787.755 33.5822C789.064 30.8959 789.592 27.896 789.279 24.9243C788.966 21.9526 787.825 19.1285 785.985 16.7739C784.145 14.4193 781.681 12.6288 778.873 11.6063C776.065 10.5839 773.027 10.3706 770.104 10.9908L760.294 13.1107L23.1732 172.114C20.2464 172.748 17.5573 174.193 15.4136 176.284C13.2698 178.375 11.7582 181.027 11.0518 183.937C10.3453 186.848 10.4726 189.898 11.419 192.739C12.3655 195.58 14.0928 198.097 16.4033 200.002V200.002Z" fill="black"/>
<path d="M135.487 301.528L139.868 311.189L142.575 309.995L142.587 309.943L763.842 28.2372L245.081 409.373L245.03 409.361L243.657 410.415L249.912 418.969L258.932 412.329L770.148 36.8018C772.158 35.3556 773.6 33.2523 774.224 30.8556C774.848 28.4589 774.614 25.9195 773.564 23.6766C772.514 21.4337 770.713 19.6284 768.473 18.5728C766.232 17.5172 763.694 17.2778 761.295 17.8959C760.708 18.0394 760.136 18.2401 759.587 18.4953L137.839 300.473L135.487 301.528Z" fill="black"/>
</g>
<defs>
<clipPath id="clip0">
<rect width="800" height="647.608" fill="white" transform="matrix(-1 0 0 1 800 0)"/>
</clipPath>
</defs>
</svg>
