<svg width="1134" height="616" viewBox="0 0 1134 616" fill="none" xmlns="http://www.w3.org/2000/svg">
<g clip-path="url(#clip0)">
<path d="M981.831 31.7199L1125.85 0.653652L1127.72 0.250864C1128.67 0.0438583 1129.66 0.11006 1130.58 0.441857C1131.5 0.773655 1132.3 1.35756 1132.9 2.12644C1133.5 2.89534 1133.87 3.81797 1133.97 4.78826C1134.07 5.75853 1133.89 6.73708 1133.46 7.61132L1076.28 123.73C1075.91 124.476 1075.37 125.122 1074.7 125.614C1074.02 126.106 1073.24 126.429 1072.42 126.557C1071.6 126.685 1070.75 126.611 1069.96 126.34C1069.17 126.069 1068.46 125.609 1067.88 125.001L1028.17 83.1247C1027.89 82.8191 1027.54 82.5755 1027.16 82.4091C1026.78 82.2425 1026.37 82.1567 1025.95 82.1571C1025.39 82.1491 1024.83 82.2951 1024.34 82.5794C1023.85 82.8637 1023.45 83.2754 1023.18 83.7709L1015.04 98.8178C1014.52 99.8209 1013.68 100.622 1012.66 101.092C1011.63 101.563 1010.47 101.676 1009.38 101.415L1009.34 101.406C1008.22 101.17 1007.22 100.567 1006.49 99.6942C1005.77 98.8211 1005.35 97.7285 1005.32 96.5918L1003.69 61.8587C1003.67 61.4252 1003.56 61.0006 1003.37 60.6107C1003.17 60.225 1002.89 59.8824 1002.56 59.6025L979.643 40.7943C978.89 40.1763 978.326 39.3582 978.016 38.4344C977.707 37.5106 977.664 36.5184 977.892 35.5711C978.12 34.6239 978.611 33.7603 979.308 33.0791C980.004 32.398 980.879 31.927 981.831 31.7199H981.831ZM980.951 39.1956L1003.86 58.0038C1004.16 58.2442 1004.43 58.5176 1004.67 58.8185L1126.11 3.74522C1126.21 3.69538 1126.32 3.6562 1126.44 3.6282C1126.91 3.50747 1127.4 3.55422 1127.84 3.76039C1128.28 3.96656 1128.63 4.31916 1128.84 4.75721C1129.04 5.19528 1129.09 5.69122 1128.96 6.15932C1128.84 6.62743 1128.56 7.03827 1128.17 7.32072L1028.32 80.6653C1028.83 80.9287 1029.29 81.2777 1029.67 81.6965L1069.39 123.573C1069.73 123.936 1070.16 124.21 1070.63 124.372C1071.11 124.534 1071.61 124.58 1072.11 124.505C1072.6 124.43 1073.07 124.237 1073.47 123.942C1073.88 123.647 1074.21 123.258 1074.43 122.81L1131.61 6.69178C1131.86 6.16712 1131.97 5.58122 1131.9 5.0008C1131.84 4.4204 1131.62 3.86882 1131.26 3.40893C1130.9 2.94905 1130.42 2.59935 1129.87 2.39965C1129.32 2.19996 1128.73 2.15831 1128.16 2.27943L1126.24 2.69349L982.274 33.7486C981.702 33.8723 981.177 34.1546 980.758 34.5631C980.339 34.9713 980.044 35.4894 979.906 36.0578C979.768 36.6261 979.793 37.2219 979.978 37.7769C980.163 38.3318 980.5 38.8233 980.951 39.1956Z" fill="#689ED0"/>
<path d="M981.831 31.7199L1125.85 0.653652L1127.72 0.250864C1128.67 0.0438583 1129.66 0.11006 1130.58 0.441857C1131.5 0.773655 1132.3 1.35756 1132.9 2.12644C1133.5 2.89534 1133.87 3.81797 1133.97 4.78826C1134.07 5.75853 1133.89 6.73708 1133.46 7.61132L1076.28 123.73C1075.91 124.476 1075.37 125.122 1074.7 125.614C1074.02 126.106 1073.24 126.429 1072.42 126.557C1071.6 126.685 1070.75 126.611 1069.96 126.34C1069.17 126.069 1068.46 125.609 1067.88 125.001L1028.17 83.1247C1027.89 82.8191 1027.54 82.5755 1027.16 82.4091C1026.78 82.2425 1026.37 82.1567 1025.95 82.1571C1025.39 82.1491 1024.83 82.2951 1024.34 82.5794C1023.85 82.8637 1023.45 83.2754 1023.18 83.7709L1015.04 98.8178C1014.52 99.8209 1013.68 100.622 1012.66 101.092C1011.63 101.563 1010.47 101.676 1009.38 101.415L1009.34 101.406C1008.22 101.17 1007.22 100.567 1006.49 99.6942C1005.77 98.8211 1005.35 97.7285 1005.32 96.5918L1003.69 61.8587C1003.67 61.4252 1003.56 61.0006 1003.37 60.6107C1003.17 60.225 1002.89 59.8824 1002.56 59.6025L979.643 40.7943C978.89 40.1763 978.326 39.3582 978.016 38.4344C977.707 37.5106 977.664 36.5184 977.892 35.5711C978.12 34.6239 978.611 33.7603 979.308 33.0791C980.004 32.398 980.879 31.927 981.831 31.7199H981.831ZM980.951 39.1956L1003.86 58.0038C1004.16 58.2442 1004.43 58.5176 1004.67 58.8185C1004.88 59.0863 1005.07 59.3763 1005.22 59.6832C1005.38 59.9972 1005.51 60.3274 1005.6 60.668L1005.6 60.6782C1005.69 61.033 1005.74 61.3975 1005.76 61.7646L1007.39 96.4978C1007.4 97.1807 1007.65 97.8386 1008.08 98.3634C1008.52 98.8881 1009.12 99.2487 1009.79 99.3853L1009.81 99.3898C1010.47 99.5537 1011.17 99.4897 1011.79 99.2088C1012.41 98.9278 1012.91 98.4461 1013.22 97.8418L1021.36 82.7849C1021.78 82.0104 1022.39 81.3561 1023.13 80.8835C1023.88 80.4111 1024.73 80.1365 1025.61 80.0856L1025.62 80.0878C1025.73 80.0823 1025.85 80.0764 1025.97 80.0809C1026.79 80.0813 1027.6 80.2819 1028.32 80.6653C1028.83 80.9287 1029.29 81.2777 1029.67 81.6965L1069.39 123.573C1069.73 123.936 1070.16 124.21 1070.63 124.372C1071.11 124.534 1071.61 124.58 1072.11 124.505C1072.6 124.43 1073.07 124.237 1073.47 123.942C1073.88 123.647 1074.21 123.258 1074.43 122.81L1131.61 6.69178C1131.86 6.16712 1131.97 5.58122 1131.9 5.0008C1131.84 4.4204 1131.62 3.86882 1131.26 3.40893C1130.9 2.94905 1130.42 2.59935 1129.87 2.39965C1129.32 2.19996 1128.73 2.15831 1128.16 2.27943L1126.24 2.69349L982.274 33.7486C981.702 33.8723 981.177 34.1546 980.758 34.5631C980.339 34.9713 980.044 35.4894 979.906 36.0578C979.768 36.6261 979.793 37.2219 979.978 37.7769C980.163 38.3318 980.5 38.8233 980.951 39.1956Z" fill="white"/>
<path d="M1004.21 59.0245L1005.07 60.9114L1005.59 60.6782L1005.6 60.6682L1126.94 5.64791L1025.61 80.088L1025.6 80.0856L1025.34 80.2915L1026.56 81.9622L1028.32 80.6653L1128.17 7.32068C1128.56 7.03822 1128.84 6.62741 1128.96 6.15931C1129.09 5.69121 1129.04 5.19523 1128.83 4.75717C1128.63 4.31912 1128.28 3.96651 1127.84 3.76034C1127.4 3.55417 1126.91 3.50743 1126.44 3.62816C1126.32 3.65617 1126.21 3.69537 1126.1 3.74521L1004.67 58.8185L1004.21 59.0245Z" fill="white"/>
</g>
<path d="M1 613.13C1 613.13 454.914 509.872 467.318 380.363C479.723 250.854 219.894 282.775 276.871 401.032C333.848 519.29 408.605 519.29 408.605 519.29C408.605 519.29 470.957 530.373 584.828 446.119C698.7 361.865 711.187 461.12 807.279 279.022C903.37 96.9245 963.903 128.843 963.903 128.843" stroke="#689ED0" stroke-width="5" stroke-dasharray="25 25"/>
<defs>
<clipPath id="clip0">
<rect width="156.411" height="126.693" fill="white" transform="translate(977.589)"/>
</clipPath>
</defs>
</svg>
